<?xml version="1.0" standalone="no"?>
<!DOCTYPE svg PUBLIC "-//W3C//DTD SVG 20010904//EN"
 "http://www.w3.org/TR/2001/REC-SVG-20010904/DTD/svg10.dtd">
<svg version="1.0" xmlns="http://www.w3.org/2000/svg"
 width="1024.000000pt" height="1024.000000pt" viewBox="0 0 1024.000000 1024.000000"
 preserveAspectRatio="xMidYMid meet">

<g transform="translate(0.000000,1024.000000) scale(0.100000,-0.100000)"
fill="#000000" stroke="none">
<path d="M2578 8210 c-180 -32 -332 -133 -428 -282 -113 -174 -124 -414 -27
-608 69 -140 244 -278 398 -315 115 -27 294 -14 390 29 12 5 63 -37 190 -155
96 -89 198 -184 227 -211 28 -27 52 -51 52 -54 0 -2 -27 -41 -61 -86 -200
-270 -324 -583 -381 -963 -20 -138 -17 -543 6 -670 66 -368 191 -671 386 -934
l62 -84 -29 -27 c-15 -15 -125 -115 -244 -222 l-216 -195 -84 18 c-209 46
-389 7 -544 -118 -156 -126 -248 -365 -214 -559 49 -289 273 -494 559 -511
123 -8 215 10 322 64 265 133 393 420 317 709 -11 43 -22 84 -22 90 -1 7 102
109 230 228 l232 217 83 -64 c490 -373 1132 -528 1748 -421 356 62 737 230
994 439 l57 47 225 -218 c167 -161 223 -221 218 -233 -36 -82 -48 -135 -52
-232 -5 -122 10 -198 60 -299 46 -93 170 -215 265 -263 338 -167 742 -3 865
351 19 57 23 87 23 197 0 118 -3 136 -27 193 -106 255 -314 401 -568 402 -42
0 -100 -6 -129 -14 l-54 -14 -96 91 c-53 50 -169 160 -258 245 l-162 155 33
41 c91 110 220 360 284 546 84 246 122 479 122 748 0 352 -65 649 -209 947
-55 114 -185 321 -236 375 l-24 25 229 213 230 212 62 -22 c52 -18 85 -22 188
-23 155 0 233 22 343 95 170 114 263 274 274 472 11 190 -44 335 -175 467 -84
85 -141 120 -247 156 -149 50 -308 39 -453 -31 -60 -29 -96 -57 -162 -123 -93
-94 -137 -168 -166 -282 -20 -78 -15 -245 11 -329 9 -30 17 -62 18 -72 1 -10
-74 -85 -193 -193 -107 -98 -207 -189 -222 -202 l-27 -26 -48 40 c-240 199
-621 379 -936 444 -132 27 -347 49 -478 49 -472 0 -961 -175 -1361 -488 -51
-40 -60 -43 -75 -31 -10 8 -113 101 -229 207 l-211 192 19 68 c10 37 21 105
24 152 25 335 -239 634 -575 654 -42 3 -97 1 -123 -4z m207 -368 c86 -43 155
-152 155 -242 0 -145 -157 -288 -293 -266 -279 45 -339 399 -87 516 58 27 165
23 225 -8z m4932 -8 c206 -127 167 -423 -64 -490 -97 -28 -199 1 -266 76 -69
76 -90 161 -62 257 13 47 27 69 73 113 68 67 104 80 199 76 60 -2 81 -8 120
-32z m-2367 -908 c599 -80 1119 -483 1345 -1043 182 -448 160 -970 -58 -1408
-37 -75 -34 -73 -54 -45 -9 13 -159 181 -332 374 -174 192 -345 383 -381 423
l-64 73 -378 0 c-208 0 -378 -2 -378 -5 0 -6 120 -140 295 -330 72 -78 204
-222 295 -320 91 -99 235 -254 320 -345 197 -211 294 -320 289 -323 -2 -2 -26
-21 -54 -44 -190 -155 -454 -275 -730 -334 -98 -22 -135 -24 -345 -23 -205 0
-248 3 -340 23 -453 97 -840 360 -1082 736 -237 367 -320 834 -228 1282 80
386 311 746 633 985 248 183 516 290 832 331 74 10 320 5 415 -7z m-2575
-3810 c95 -44 165 -151 165 -251 0 -113 -87 -229 -195 -260 -228 -67 -421 170
-314 383 66 133 215 189 344 128z m4923 -2 c133 -66 191 -224 133 -360 -90
-209 -381 -215 -489 -10 -35 67 -37 179 -5 241 71 135 233 193 361 129z"/>
</g>
</svg>
